{"glyphs":{":":{"x_min":0,"x_max":202,"ha":202,"o":"m 101 96 b 71 96 50 75 50 45 b 50 15 71 -6 101 -6 b 131 -6 152 15 152 45 b 152 75 131 96 101 96 z m 101 385 b 71 385 50 364 50 334 b 50 304 71 283 101 283 b 131 283 152 304 152 334 b 152 364 131 385 101 385 z"},"$":{"x_min":0,"x_max":531,"ha":531,"o":"m 234 736 l 234 671 b 205 670 150 661 108 628 b 73 599 50 555 50 507 b 50 452 75 407 113 375 b 150 344 195 330 234 320 l 234 65 b 182 70 130 88 88 119 l 44 63 b 99 23 166 0 234 -5 l 234 -70 l 288 -70 l 288 -5 b 331 -2 376 11 413 40 b 455 73 481 125 481 180 b 481 212 471 266 423 312 b 390 343 348 363 288 379 l 288 601 b 333 596 376 583 413 561 l 453 619 b 403 650 345 667 288 671 l 288 736 z m 234 601 l 234 393 b 206 401 181 412 162 428 b 137 449 124 474 124 507 b 124 520 129 551 155 574 b 172 588 201 600 234 601 z m 288 306 b 326 293 347 285 372 261 b 401 233 407 197 407 180 b 407 146 393 120 372 100 b 349 78 320 69 288 65 z"},"?":{"x_min":0,"x_max":464,"ha":464,"o":"m 404 490 b 404 590 330 672 210 672 b 155 672 96 654 50 618 l 91 561 b 124 587 168 602 210 602 b 286 602 330 552 330 490 b 330 439 305 409 261 382 b 217 355 181 312 181 224 b 181 206 183 169 183 169 l 237 169 l 239 216 b 242 290 275 311 321 342 b 367 373 404 414 404 490 z m 210 96 b 180 96 159 75 159 45 b 159 15 180 -6 210 -6 b 240 -6 261 15 261 45 b 261 75 240 96 210 96 z"},"<":{"x_min":0,"x_max":520,"ha":520,"o":"m 449 394 l 421 446 l 80 276 l 80 224 l 421 54 l 449 106 l 157 250 z"},"'":{"x_min":0,"x_max":202,"ha":202,"o":"m 50 621 b 50 598 63 579 82 573 l 53 455 l 98 455 l 138 567 b 148 595 152 608 152 621 b 152 652 131 672 101 672 b 71 672 50 652 50 621 z"},"=":{"x_min":0,"x_max":520,"ha":520,"o":"m 80 347 l 80 289 l 440 289 l 440 347 z m 80 211 l 80 153 l 440 153 l 440 211 z"},"a":{"x_min":0,"x_max":443,"ha":443,"o":"m 105 144 b 105 174 120 195 138 208 b 167 229 202 229 236 229 l 318 229 b 318 178 318 140 296 107 b 278 80 244 60 201 60 b 179 60 153 66 135 81 b 117 96 105 120 105 144 z m 213 484 b 157 484 107 472 61 455 l 82 392 b 124 408 169 418 213 418 b 251 418 277 408 294 389 b 318 362 318 322 318 291 l 236 291 b 197 291 141 291 94 257 b 62 234 35 194 35 141 b 35 95 60 53 92 28 b 124 3 161 -6 196 -6 b 245 -6 292 17 318 57 l 318 0 l 388 0 l 388 284 b 388 327 388 386 348 431 b 318 465 273 484 213 484 z"},"L":{"x_min":0,"x_max":480,"ha":480,"o":"m 75 666 l 75 0 l 425 0 l 425 70 l 149 70 l 149 666 z"},"3":{"x_min":0,"x_max":483,"ha":483,"o":"m 222 672 b 167 672 108 654 62 618 l 103 561 b 136 587 180 602 222 602 b 298 602 342 552 342 490 b 342 451 325 416 293 397 b 261 378 226 378 165 378 l 165 308 b 228 308 265 308 299 288 b 333 268 354 231 354 186 b 354 125 313 64 222 64 b 170 64 125 83 95 111 l 50 56 b 92 19 154 -6 222 -6 b 341 -6 428 74 428 186 b 428 259 391 314 338 345 b 385 374 416 423 416 490 b 416 590 342 672 222 672 z"},";":{"x_min":0,"x_max":202,"ha":202,"o":"m 50 45 b 50 22 63 3 82 -3 l 53 -121 l 98 -121 l 138 -9 b 148 19 152 32 152 45 b 152 76 131 96 101 96 b 71 96 50 76 50 45 z m 101 385 b 71 385 50 364 50 334 b 50 304 71 283 101 283 b 131 283 152 304 152 334 b 152 364 131 385 101 385 z"},"J":{"x_min":0,"x_max":446,"ha":446,"o":"m 302 666 l 302 261 b 302 184 302 133 269 98 b 250 78 221 64 181 64 b 145 64 107 76 80 99 l 35 43 b 78 10 129 -6 181 -6 b 240 -6 297 15 335 64 b 376 117 376 179 376 261 l 376 666 z"},"V":{"x_min":0,"x_max":548,"ha":548,"o":"m 309 0 l 523 666 l 446 666 l 274 106 l 102 666 l 25 666 l 239 0 z"},"\"":{"x_min":0,"x_max":362,"ha":362,"o":"m 210 621 b 210 598 223 579 242 573 l 213 455 l 258 455 l 298 567 b 308 595 312 608 312 621 b 312 652 291 672 261 672 b 231 672 210 652 210 621 z m 50 621 b 50 598 63 579 82 573 l 53 455 l 98 455 l 138 567 b 148 595 152 608 152 621 b 152 652 131 672 101 672 b 71 672 50 652 50 621 z"},"7":{"x_min":0,"x_max":500,"ha":500,"o":"m 55 666 l 55 596 l 357 596 l 104 0 l 183 0 l 445 616 l 445 666 z"},"S":{"x_min":0,"x_max":510,"ha":510,"o":"m 247 672 b 123 672 49 596 49 501 b 49 450 77 402 111 374 b 152 340 191 329 228 318 b 274 304 315 292 342 269 b 370 246 386 211 386 180 b 386 126 348 64 247 64 b 191 64 136 81 90 119 l 48 62 b 106 16 177 -6 247 -6 b 390 -6 460 89 460 180 b 460 238 429 289 394 319 b 352 355 303 369 259 382 b 226 392 187 404 163 424 b 138 444 123 473 123 503 b 123 551 158 602 247 602 b 300 602 353 585 389 556 l 427 616 b 380 651 313 672 247 672 z"},"}":{"x_min":0,"x_max":336,"ha":336,"o":"m 206 298 b 180 277 164 255 151 226 b 137 194 131 160 131 117 b 131 80 135 43 135 6 b 135 -34 130 -64 112 -96 b 97 -123 73 -141 50 -149 l 70 -201 b 111 -187 144 -158 164 -124 b 186 -86 195 -47 195 6 b 195 43 191 80 191 117 b 191 153 195 183 212 215 b 225 240 247 261 276 271 l 276 325 b 247 335 225 356 212 381 b 195 413 191 443 191 479 b 191 516 195 553 195 589 b 195 642 186 681 164 719 b 144 753 111 782 70 796 l 50 744 b 73 736 97 718 112 691 b 130 659 135 629 135 589 b 135 553 131 516 131 479 b 131 436 137 402 151 370 b 164 341 180 319 206 298 z"},"Z":{"x_min":0,"x_max":530,"ha":530,"o":"m 70 666 l 70 596 l 372 596 l 60 50 l 60 0 l 470 0 l 470 70 l 147 70 l 460 616 l 460 666 z"},"x":{"x_min":0,"x_max":452,"ha":452,"o":"m 43 478 l 187 241 l 40 0 l 117 0 l 226 187 l 333 0 l 412 0 l 265 241 l 409 478 l 332 478 l 226 296 l 122 478 z"},")":{"x_min":0,"x_max":320,"ha":320,"o":"m 180 298 b 180 108 180 20 140 -56 b 119 -97 85 -130 42 -149 l 66 -200 b 122 -176 167 -132 194 -80 b 240 7 240 103 240 298 b 240 493 240 588 194 675 b 167 727 122 771 66 795 l 42 744 b 85 725 119 692 140 651 b 180 575 180 488 180 298 z"},"&":{"x_min":0,"x_max":645,"ha":645,"o":"m 392 110 b 362 83 318 64 266 64 b 175 64 134 125 134 186 b 134 231 155 268 189 288 b 223 308 260 308 323 308 l 392 308 z m 515 -6 b 546 -6 577 4 605 19 l 574 82 b 552 70 532 64 515 64 b 499 64 484 69 475 83 b 466 97 466 112 466 131 l 466 308 l 569 308 l 569 378 l 466 378 l 466 478 l 392 478 l 392 378 l 323 378 b 262 378 227 378 195 397 b 163 416 146 451 146 490 b 146 552 190 602 266 602 b 308 602 352 587 385 561 l 426 618 b 380 654 321 672 266 672 b 146 672 72 590 72 490 b 72 423 103 374 150 345 b 97 314 60 259 60 186 b 60 74 147 -6 266 -6 b 322 -6 376 11 417 45 b 437 13 471 -6 515 -6 z"},"_":{"x_min":0,"x_max":440,"ha":440,"o":"m 35 0 l 35 -58 l 405 -58 l 405 0 z"},"v":{"x_min":0,"x_max":430,"ha":430,"o":"m 249 0 l 415 478 l 342 478 l 216 91 l 89 478 l 15 478 l 181 0 z"},"O":{"x_min":0,"x_max":584,"ha":584,"o":"m 139 333 b 139 435 139 495 165 538 b 189 578 236 602 292 602 b 348 602 395 578 419 538 b 445 495 445 435 445 333 b 445 231 445 171 419 128 b 395 88 348 64 292 64 b 236 64 189 88 165 128 b 139 171 139 231 139 333 z m 65 333 b 65 215 65 152 101 93 b 138 32 208 -6 292 -6 b 376 -6 446 32 483 93 b 519 152 519 215 519 333 b 519 451 519 514 483 573 b 446 634 376 672 292 672 b 208 672 138 634 101 573 b 65 514 65 451 65 333 z"},"(":{"x_min":0,"x_max":320,"ha":320,"o":"m 140 298 b 140 488 140 575 180 651 b 201 692 235 725 278 744 l 254 795 b 198 771 153 727 126 675 b 80 588 80 493 80 298 b 80 103 80 7 126 -80 b 153 -132 198 -176 254 -200 l 278 -149 b 235 -130 201 -97 180 -56 b 140 20 140 108 140 298 z"},"C":{"x_min":0,"x_max":534,"ha":534,"o":"m 290 672 b 210 672 150 638 115 593 b 65 529 65 454 65 333 b 65 208 65 138 114 74 b 150 27 210 -6 290 -6 b 369 -6 438 28 479 73 l 428 123 b 398 88 348 64 290 64 b 237 64 198 84 174 115 b 139 161 139 218 139 333 b 139 448 139 506 175 552 b 200 584 241 602 290 602 b 346 602 391 580 420 550 l 465 605 b 425 644 362 672 290 672 z"},"W":{"x_min":0,"x_max":710,"ha":710,"o":"m 382 501 l 330 501 l 213 136 l 105 666 l 30 666 l 171 0 l 230 0 l 355 385 l 480 0 l 539 0 l 680 666 l 607 666 l 501 136 z"},"A":{"x_min":0,"x_max":544,"ha":544,"o":"m 15 0 l 93 0 l 146 165 l 398 165 l 451 0 l 529 0 l 302 666 l 242 666 z m 376 235 l 168 235 l 272 562 z"},"f":{"x_min":0,"x_max":352,"ha":352,"o":"m 115 486 l 115 478 l 35 478 l 35 416 l 115 416 l 115 0 l 185 0 l 185 416 l 295 416 l 295 478 l 185 478 b 185 541 185 563 199 583 b 209 597 225 606 248 606 b 265 606 283 602 304 596 l 322 659 b 300 666 276 672 248 672 b 199 672 160 649 138 616 b 115 581 115 543 115 486 z"},"Q":{"x_min":0,"x_max":584,"ha":584,"o":"m 65 333 b 65 215 65 152 101 93 b 138 32 208 -6 292 -6 b 313 -6 334 -4 353 1 l 495 -95 l 532 -36 l 427 34 b 450 50 469 70 483 93 b 519 152 519 215 519 333 b 519 451 519 514 483 573 b 446 634 376 672 292 672 b 208 672 138 634 101 573 b 65 514 65 451 65 333 z m 139 333 b 139 435 139 495 165 538 b 189 578 236 602 292 602 b 348 602 395 578 419 538 b 445 495 445 435 445 333 b 445 231 445 171 419 128 b 395 88 348 64 292 64 b 236 64 189 88 165 128 b 139 171 139 231 139 333 z"},"w":{"x_min":0,"x_max":650,"ha":650,"o":"m 508 0 l 630 478 l 559 478 l 472 111 l 353 478 l 298 478 l 180 111 l 92 478 l 20 478 l 142 0 l 206 0 l 325 371 l 444 0 z"},"-":{"x_min":0,"x_max":370,"ha":370,"o":"m 80 279 l 80 221 l 290 221 l 290 279 z"},"E":{"x_min":0,"x_max":510,"ha":510,"o":"m 75 666 l 75 0 l 445 0 l 445 70 l 149 70 l 149 308 l 385 308 l 385 378 l 149 378 l 149 596 l 445 596 l 445 666 z"},"s":{"x_min":0,"x_max":408,"ha":408,"o":"m 345 451 b 300 472 250 484 199 484 b 158 484 123 475 94 455 b 65 435 40 400 40 354 b 40 311 63 275 93 252 b 123 229 159 220 191 213 b 223 206 248 200 270 184 b 286 172 298 153 298 130 b 298 113 291 93 272 79 b 253 65 228 60 199 60 b 153 60 107 70 66 89 l 38 29 b 89 5 145 -6 199 -6 b 245 -6 283 4 314 26 b 345 48 368 85 368 130 b 368 180 340 217 309 239 b 281 259 248 268 212 276 b 176 284 155 289 135 305 b 121 316 110 333 110 354 b 110 376 122 394 139 404 b 156 414 174 418 199 418 b 239 418 281 408 319 390 z"},">":{"x_min":0,"x_max":520,"ha":520,"o":"m 71 394 l 363 250 l 71 106 l 99 54 l 440 224 l 440 276 l 99 446 z"},"l":{"x_min":0,"x_max":200,"ha":200,"o":"m 65 666 l 65 0 l 135 0 l 135 666 z"},"8":{"x_min":0,"x_max":522,"ha":522,"o":"m 261 672 b 149 672 67 595 67 490 b 67 429 95 377 145 345 b 88 311 55 254 55 186 b 55 75 143 -6 261 -6 b 379 -6 467 75 467 186 b 467 254 434 311 377 345 b 427 377 455 429 455 490 b 455 595 373 672 261 672 z m 261 602 b 334 602 381 558 381 490 b 381 422 334 378 261 378 b 188 378 141 422 141 490 b 141 558 188 602 261 602 z m 261 308 b 342 308 393 260 393 186 b 393 112 342 64 261 64 b 180 64 129 112 129 186 b 129 260 180 308 261 308 z"},"\\":{"x_min":0,"x_max":342,"ha":342,"o":"m 20 740 l 260 -144 l 322 -144 l 82 740 z"},"e":{"x_min":0,"x_max":457,"ha":457,"o":"m 345 281 l 115 281 b 115 317 121 353 142 380 b 163 407 197 418 230 418 b 263 418 297 407 318 380 b 339 353 345 317 345 281 z m 230 484 b 170 484 121 460 91 425 b 45 371 45 303 45 239 b 45 179 45 107 91 54 b 124 16 174 -6 240 -6 b 292 -6 346 6 395 32 l 367 92 b 329 71 286 60 240 60 b 192 60 163 75 145 96 b 115 131 115 190 115 219 l 415 219 l 415 239 b 415 315 411 375 369 425 b 339 460 290 484 230 484 z"},"b":{"x_min":0,"x_max":480,"ha":480,"o":"m 250 418 b 288 418 317 404 335 383 b 365 348 365 293 365 239 b 365 185 365 130 335 95 b 317 74 288 60 250 60 b 212 60 183 74 165 95 b 135 130 135 185 135 239 b 135 293 135 348 165 383 b 183 404 212 418 250 418 z m 255 484 b 206 484 162 461 135 423 l 135 666 l 65 666 l 65 0 l 135 0 l 135 55 b 162 17 206 -6 255 -6 b 314 -6 361 18 390 53 b 435 107 435 173 435 239 b 435 305 435 371 390 425 b 361 460 314 484 255 484 z"},"%":{"x_min":0,"x_max":692,"ha":692,"o":"m 512 295 b 473 295 440 278 420 254 b 392 220 392 184 392 144 b 392 105 392 69 420 35 b 440 11 473 -6 512 -6 b 551 -6 584 11 604 35 b 632 69 632 105 632 144 b 632 184 632 220 604 254 b 584 278 551 295 512 295 z m 512 237 b 532 237 549 229 560 214 b 572 197 572 177 572 144 b 572 112 572 92 560 75 b 549 60 532 52 512 52 b 492 52 475 60 464 75 b 452 92 452 112 452 144 b 452 177 452 197 464 214 b 475 229 492 237 512 237 z m 180 672 b 141 672 108 655 88 631 b 60 597 60 561 60 521 b 60 482 60 446 88 412 b 108 388 141 371 180 371 b 219 371 252 388 272 412 b 300 446 300 482 300 521 b 300 561 300 597 272 631 b 252 655 219 672 180 672 z m 180 614 b 200 614 217 606 228 591 b 240 574 240 554 240 521 b 240 489 240 469 228 452 b 217 437 200 429 180 429 b 160 429 143 437 132 452 b 120 469 120 489 120 521 b 120 554 120 574 132 591 b 143 606 160 614 180 614 z m 486 666 l 126 0 l 200 0 l 560 666 z"},"m":{"x_min":0,"x_max":710,"ha":710,"o":"m 495 484 b 440 484 389 450 366 404 b 341 454 297 484 235 484 b 195 484 159 465 135 432 l 135 478 l 65 478 l 65 0 l 135 0 l 135 256 b 135 321 135 354 154 382 b 169 404 196 418 230 418 b 264 418 291 404 306 382 b 325 354 325 321 325 256 l 325 0 l 395 0 l 395 256 b 395 321 395 354 414 382 b 429 404 456 418 490 418 b 524 418 551 404 566 382 b 585 354 585 321 585 256 l 585 0 l 655 0 l 655 256 b 655 330 655 394 606 441 b 579 466 542 484 495 484 z"},"#":{"x_min":0,"x_max":610,"ha":610,"o":"m 236 666 l 196 478 l 90 478 l 90 421 l 184 421 l 148 247 l 55 247 l 55 190 l 136 190 l 96 0 l 160 0 l 200 190 l 350 190 l 310 0 l 374 0 l 414 190 l 520 190 l 520 247 l 426 247 l 462 421 l 555 421 l 555 478 l 474 478 l 514 666 l 450 666 l 410 478 l 260 478 l 300 666 z m 398 421 l 362 247 l 212 247 l 248 421 z"},",":{"x_min":0,"x_max":202,"ha":202,"o":"m 50 45 b 50 22 63 3 82 -3 l 53 -121 l 98 -121 l 138 -9 b 148 19 152 32 152 45 b 152 76 131 96 101 96 b 71 96 50 76 50 45 z"},"n":{"x_min":0,"x_max":470,"ha":470,"o":"m 65 478 l 65 0 l 135 0 l 135 256 b 135 318 135 360 164 389 b 181 406 207 418 240 418 b 273 418 299 406 316 389 b 345 360 345 318 345 256 l 345 0 l 415 0 l 415 256 b 415 326 415 384 369 433 b 346 458 304 484 245 484 b 198 484 158 461 135 428 l 135 478 z"},"h":{"x_min":0,"x_max":470,"ha":470,"o":"m 65 666 l 65 0 l 135 0 l 135 256 b 135 318 135 360 164 389 b 181 406 207 418 240 418 b 273 418 299 406 316 389 b 345 360 345 318 345 256 l 345 0 l 415 0 l 415 256 b 415 326 415 384 369 433 b 346 458 304 484 245 484 b 198 484 158 461 135 428 l 135 666 z"},"z":{"x_min":0,"x_max":440,"ha":440,"o":"m 60 478 l 60 412 l 294 412 l 60 50 l 60 0 l 380 0 l 380 66 l 146 66 l 380 428 l 380 478 z"},"B":{"x_min":0,"x_max":540,"ha":540,"o":"m 234 308 b 303 308 348 308 381 273 b 398 255 411 225 411 189 b 411 153 398 123 381 105 b 348 70 303 70 234 70 l 149 70 l 149 308 z m 224 596 b 292 596 338 596 367 560 b 384 539 391 513 391 487 b 391 461 384 435 367 414 b 338 378 292 378 224 378 l 149 378 l 149 596 z m 224 666 l 75 666 l 75 0 l 234 0 b 308 0 378 0 432 54 b 463 85 485 132 485 189 b 485 262 450 318 392 348 b 439 377 465 426 465 487 b 465 544 442 595 401 627 b 351 666 295 666 224 666 z"},"K":{"x_min":0,"x_max":565,"ha":565,"o":"m 525 0 l 273 347 l 505 666 l 418 666 l 149 294 l 149 666 l 75 666 l 75 0 l 149 0 l 149 192 l 222 295 l 436 0 z"},"R":{"x_min":0,"x_max":540,"ha":540,"o":"m 149 596 l 208 596 b 283 596 329 596 367 561 b 393 537 406 499 406 461 b 406 423 393 385 367 361 b 329 326 283 326 208 326 l 149 326 z m 75 666 l 75 -1 l 149 -1 l 149 256 l 208 256 b 258 256 280 256 302 259 l 410 0 l 490 0 l 372 279 b 434 308 480 374 480 461 b 480 524 456 576 419 611 b 360 666 287 666 208 666 z"},"T":{"x_min":0,"x_max":530,"ha":530,"o":"m 40 666 l 40 596 l 228 596 l 228 0 l 302 0 l 302 596 l 490 596 l 490 666 z"},"P":{"x_min":0,"x_max":525,"ha":525,"o":"m 75 666 l 75 0 l 149 0 l 149 236 l 194 236 b 273 236 347 236 408 291 b 457 335 475 398 475 451 b 475 504 457 567 408 611 b 347 666 273 666 194 666 z m 149 596 l 194 596 b 268 596 317 596 356 561 b 383 537 401 499 401 451 b 401 403 383 365 356 341 b 317 306 268 306 194 306 l 149 306 z"},"|":{"x_min":0,"x_max":230,"ha":230,"o":"m 85 740 l 85 -145 l 145 -145 l 145 740 z"},"t":{"x_min":0,"x_max":355,"ha":355,"o":"m 115 591 l 115 478 l 35 478 l 35 416 l 115 416 l 115 160 b 115 106 115 70 140 38 b 161 11 195 -6 236 -6 b 268 -6 299 5 325 19 l 296 79 b 275 67 254 60 236 60 b 217 60 204 67 196 78 b 185 93 185 108 185 170 l 185 416 l 295 416 l 295 478 l 185 478 l 185 591 z"},"M":{"x_min":0,"x_max":700,"ha":700,"o":"m 75 666 l 75 0 l 149 0 l 149 500 l 318 165 l 382 165 l 551 502 l 551 0 l 625 0 l 625 666 l 559 666 l 350 253 l 140 666 z"},"g":{"x_min":0,"x_max":480,"ha":480,"o":"m 225 484 b 166 484 119 460 90 425 b 45 371 45 305 45 239 b 45 173 45 107 90 53 b 119 18 166 -6 225 -6 b 274 -6 318 17 345 55 l 345 45 b 345 -16 345 -52 321 -82 b 302 -106 269 -123 220 -123 b 178 -123 136 -111 103 -93 l 74 -153 b 118 -177 171 -189 220 -189 b 286 -189 337 -166 369 -131 b 415 -81 415 -26 415 45 l 415 478 l 345 478 l 345 423 b 318 461 274 484 225 484 z m 230 418 b 268 418 297 404 315 383 b 345 348 345 293 345 239 b 345 185 345 130 315 95 b 297 74 268 60 230 60 b 192 60 163 74 145 95 b 115 130 115 185 115 239 b 115 293 115 348 145 383 b 163 404 192 418 230 418 z"},"j":{"x_min":0,"x_max":200,"ha":200,"o":"m 135 -24 l 135 478 l 65 478 l 65 -14 b 65 -72 65 -90 55 -104 b 45 -118 30 -123 14 -123 b 0 -123 -16 -119 -29 -113 l -54 -174 b -34 -183 -9 -189 14 -189 b 57 -189 89 -171 109 -146 b 135 -113 135 -78 135 -24 z m 100 649 b 73 649 53 630 53 602 b 53 574 73 555 100 555 b 127 555 147 574 147 602 b 147 630 127 649 100 649 z"},"i":{"x_min":0,"x_max":200,"ha":200,"o":"m 100 649 b 73 649 53 630 53 602 b 53 574 73 555 100 555 b 127 555 147 574 147 602 b 147 630 127 649 100 649 z m 65 0 l 135 0 l 135 478 l 65 478 z"},"y":{"x_min":0,"x_max":432,"ha":432,"o":"m 15 478 l 182 -3 l 120 -183 l 193 -183 l 414 478 l 342 478 l 218 82 l 89 478 z"},"@":{"x_min":0,"x_max":855,"ha":855,"o":"m 311 143 b 311 173 326 196 344 209 b 372 229 408 229 442 229 l 524 229 l 524 220 b 524 179 524 140 502 107 b 484 80 450 60 407 60 b 385 60 359 66 341 81 b 323 96 311 120 311 143 z m 347 666 l 282 666 l 282 604 l 347 604 b 457 604 561 604 637 528 b 714 451 714 349 714 235 l 714 98 b 714 23 714 -31 678 -73 b 637 -121 575 -121 497 -121 l 358 -121 b 280 -121 218 -121 177 -73 b 141 -31 141 23 141 98 l 141 200 b 141 275 141 329 177 371 b 218 419 281 419 359 419 b 428 419 456 419 485 396 b 524 365 524 329 524 291 l 442 291 b 403 291 347 291 300 257 b 268 234 241 195 241 143 b 241 95 266 53 298 28 b 330 3 367 -6 402 -6 b 451 -6 498 17 524 57 l 524 0 l 594 0 l 594 265 b 594 332 594 395 532 442 b 480 481 436 481 359 481 b 277 481 191 481 130 415 b 75 355 75 283 75 200 l 75 98 b 75 15 75 -57 130 -117 b 191 -183 276 -183 358 -183 l 497 -183 b 579 -183 664 -183 725 -117 b 780 -57 780 15 780 98 l 780 235 b 780 351 780 475 685 570 b 589 666 468 666 347 666 z"},".":{"x_min":0,"x_max":202,"ha":202,"o":"m 101 96 b 71 96 50 75 50 45 b 50 15 71 -6 101 -6 b 131 -6 152 15 152 45 b 152 75 131 96 101 96 z"},"p":{"x_min":0,"x_max":480,"ha":480,"o":"m 250 418 b 288 418 317 404 335 383 b 365 348 365 293 365 239 b 365 185 365 130 335 95 b 317 74 288 60 250 60 b 212 60 183 74 165 95 b 135 130 135 185 135 239 b 135 293 135 348 165 383 b 183 404 212 418 250 418 z m 255 484 b 206 484 162 461 135 423 l 135 478 l 65 478 l 65 -183 l 135 -183 l 135 55 b 162 17 206 -6 255 -6 b 314 -6 361 18 390 53 b 435 107 435 173 435 239 b 435 305 435 371 390 425 b 361 460 314 484 255 484 z"},"X":{"x_min":0,"x_max":540,"ha":540,"o":"m 45 666 l 224 338 l 40 0 l 123 0 l 270 278 l 417 0 l 500 0 l 316 338 l 495 666 l 412 666 l 270 398 l 128 666 z"},"*":{"x_min":0,"x_max":352,"ha":352,"o":"m 150 667 l 153 576 l 66 608 l 50 558 l 138 532 l 83 459 l 124 429 l 176 504 l 228 429 l 270 460 l 214 532 l 302 557 l 286 607 l 199 576 l 202 667 z"},"Y":{"x_min":0,"x_max":510,"ha":510,"o":"m 20 666 l 218 250 l 218 0 l 292 0 l 292 250 l 490 666 l 409 666 l 255 331 l 101 666 z"},"c":{"x_min":0,"x_max":418,"ha":418,"o":"m 343 93 b 311 71 273 60 235 60 b 196 60 166 73 147 95 b 115 132 115 192 115 243 b 115 287 115 346 146 382 b 170 410 204 418 235 418 b 271 418 308 407 338 388 l 371 446 b 332 470 283 484 235 484 b 171 484 123 460 92 424 b 45 370 45 295 45 243 b 45 184 45 107 93 53 b 124 18 171 -6 235 -6 b 285 -6 336 9 378 36 z"},"!":{"x_min":0,"x_max":260,"ha":260,"o":"m 130 96 b 100 96 79 75 79 45 b 79 15 100 -6 130 -6 b 160 -6 181 15 181 45 b 181 75 160 96 130 96 z m 93 666 l 93 472 b 93 292 103 169 103 169 l 157 169 b 157 169 167 292 167 472 l 167 666 z"},"/":{"x_min":0,"x_max":342,"ha":342,"o":"m 260 740 l 20 -144 l 82 -144 l 322 740 z"},"[":{"x_min":0,"x_max":289,"ha":289,"o":"m 85 780 l 85 -185 l 239 -185 l 239 -129 l 145 -129 l 145 724 l 239 724 l 239 780 z"},"6":{"x_min":0,"x_max":500,"ha":500,"o":"m 250 416 b 231 416 213 412 197 405 l 322 666 l 241 666 l 96 363 b 66 300 50 259 50 205 b 50 87 130 -6 250 -6 b 370 -6 450 87 450 205 b 450 323 370 416 250 416 z m 250 346 b 323 346 376 294 376 205 b 376 116 323 64 250 64 b 177 64 124 116 124 205 b 124 294 177 346 250 346 z"},"r":{"x_min":0,"x_max":348,"ha":348,"o":"m 255 484 b 206 484 162 461 135 423 l 135 478 l 65 478 l 65 0 l 135 0 l 135 239 b 135 293 135 348 165 383 b 183 404 212 418 250 418 b 270 418 285 415 298 410 l 316 474 b 295 481 274 484 255 484 z"},"2":{"x_min":0,"x_max":506,"ha":506,"o":"m 446 70 l 165 70 l 360 335 b 398 387 426 428 426 490 b 426 594 347 672 232 672 b 176 672 119 654 73 619 l 113 560 b 146 587 189 602 232 602 b 309 602 352 552 352 490 b 352 447 331 418 295 369 l 60 50 l 60 0 l 446 0 z"},"{":{"x_min":0,"x_max":336,"ha":336,"o":"m 130 298 b 156 319 172 341 185 370 b 199 402 205 436 205 479 b 205 516 201 553 201 589 b 201 629 206 659 224 691 b 239 718 263 736 286 744 l 266 796 b 225 782 192 753 172 719 b 150 681 141 642 141 589 b 141 553 145 516 145 479 b 145 443 141 413 124 381 b 111 356 89 335 60 325 l 60 271 b 89 261 111 240 124 215 b 141 183 145 153 145 117 b 145 80 141 43 141 6 b 141 -47 150 -86 172 -124 b 192 -158 225 -187 266 -201 l 286 -149 b 263 -141 239 -123 224 -96 b 206 -64 201 -34 201 6 b 201 43 205 80 205 117 b 205 160 199 194 185 226 b 172 255 156 277 130 298 z"},"9":{"x_min":0,"x_max":500,"ha":500,"o":"m 250 250 b 269 250 287 254 303 261 l 178 0 l 259 0 l 404 303 b 434 366 450 407 450 461 b 450 579 370 672 250 672 b 130 672 50 579 50 461 b 50 343 130 250 250 250 z m 250 320 b 177 320 124 372 124 461 b 124 550 177 602 250 602 b 323 602 376 550 376 461 b 376 372 323 320 250 320 z"}," ":{"x_min":0,"x_max":250,"ha":250,"o":""},"I":{"x_min":0,"x_max":224,"ha":224,"o":"m 149 666 l 75 666 l 75 0 l 149 0 z"},"H":{"x_min":0,"x_max":590,"ha":590,"o":"m 75 666 l 75 0 l 149 0 l 149 308 l 441 308 l 441 0 l 515 0 l 515 666 l 441 666 l 441 378 l 149 378 l 149 666 z"},"4":{"x_min":0,"x_max":525,"ha":525,"o":"m 256 666 l 55 215 l 55 165 l 343 165 l 343 0 l 413 0 l 413 165 l 470 165 l 470 233 l 413 233 l 413 403 l 343 403 l 343 233 l 137 233 l 330 666 z"},"~":{"x_min":0,"x_max":520,"ha":520,"o":"m 114 211 b 119 233 141 252 169 252 b 195 252 218 239 244 224 b 268 211 304 188 351 188 b 409 188 455 227 466 277 l 406 289 b 401 267 379 248 351 248 b 325 248 302 261 276 276 b 252 289 216 312 169 312 b 111 312 65 273 54 223 z"},"D":{"x_min":0,"x_max":560,"ha":560,"o":"m 75 666 l 75 0 l 184 0 b 272 0 358 0 427 69 b 495 137 495 221 495 333 b 495 445 495 529 427 597 b 358 666 272 666 184 666 z m 149 596 l 184 596 b 263 596 326 596 373 549 b 421 501 421 439 421 333 b 421 227 421 165 373 117 b 326 70 263 70 184 70 l 149 70 z"},"^":{"x_min":0,"x_max":368,"ha":368,"o":"m 145 666 l 50 546 l 116 546 l 184 622 l 252 546 l 318 546 l 223 666 z"},"0":{"x_min":0,"x_max":534,"ha":534,"o":"m 267 602 b 319 602 355 580 375 543 b 395 506 395 461 395 333 b 395 205 395 160 375 123 b 355 86 319 64 267 64 b 215 64 179 86 159 123 b 139 160 139 205 139 333 b 139 461 139 506 159 543 b 179 580 215 602 267 602 z m 267 672 b 186 672 127 634 96 580 b 65 526 65 478 65 333 b 65 188 65 140 96 86 b 127 32 186 -6 267 -6 b 348 -6 407 32 438 86 b 469 140 469 188 469 333 b 469 478 469 526 438 580 b 407 634 348 672 267 672 z"},"F":{"x_min":0,"x_max":495,"ha":495,"o":"m 75 666 l 75 0 l 149 0 l 149 308 l 385 308 l 385 378 l 149 378 l 149 596 l 435 596 l 435 666 z"},"`":{"x_min":0,"x_max":253,"ha":253,"o":"m 50 666 l 137 546 l 203 546 l 128 666 z"},"k":{"x_min":0,"x_max":454,"ha":454,"o":"m 65 666 l 65 0 l 135 0 l 135 138 l 191 213 l 338 0 l 419 0 l 237 261 l 404 478 l 322 478 l 135 229 l 135 666 z"},"u":{"x_min":0,"x_max":460,"ha":460,"o":"m 55 478 l 55 222 b 55 152 55 94 102 45 b 126 20 169 -6 230 -6 b 291 -6 334 20 358 45 b 405 94 405 152 405 222 l 405 478 l 335 478 l 335 222 b 335 160 335 118 306 89 b 289 72 263 60 230 60 b 197 60 171 72 154 89 b 125 118 125 160 125 222 l 125 478 z"},"]":{"x_min":0,"x_max":289,"ha":289,"o":"m 50 780 l 50 724 l 144 724 l 144 -129 l 50 -129 l 50 -185 l 204 -185 l 204 780 z"},"U":{"x_min":0,"x_max":554,"ha":554,"o":"m 70 666 l 70 279 b 70 189 70 117 122 58 b 158 17 215 -6 277 -6 b 339 -6 396 17 432 58 b 484 117 484 189 484 279 l 484 666 l 410 666 l 410 279 b 410 198 410 142 376 104 b 352 77 316 64 277 64 b 238 64 202 77 178 104 b 144 142 144 198 144 279 l 144 666 z"},"o":{"x_min":0,"x_max":470,"ha":470,"o":"m 235 418 b 279 418 313 400 333 370 b 355 337 355 290 355 239 b 355 188 355 141 333 108 b 313 78 279 60 235 60 b 191 60 157 78 137 108 b 115 141 115 188 115 239 b 115 290 115 337 137 370 b 157 400 191 418 235 418 z m 235 484 b 164 484 106 452 74 399 b 45 351 45 296 45 239 b 45 182 45 127 74 79 b 106 26 164 -6 235 -6 b 306 -6 364 26 396 79 b 425 127 425 182 425 239 b 425 296 425 351 396 399 b 364 452 306 484 235 484 z"},"N":{"x_min":0,"x_max":590,"ha":590,"o":"m 75 666 l 75 0 l 149 0 l 149 519 l 450 0 l 515 0 l 515 666 l 441 666 l 441 147 l 140 666 z"},"+":{"x_min":0,"x_max":520,"ha":520,"o":"m 80 279 l 80 221 l 230 221 l 230 70 l 290 70 l 290 221 l 440 221 l 440 279 l 290 279 l 290 430 l 230 430 l 230 279 z"},"G":{"x_min":0,"x_max":580,"ha":580,"o":"m 290 672 b 210 672 150 638 115 593 b 65 529 65 454 65 333 b 65 208 65 138 114 74 b 150 27 210 -6 290 -6 b 370 -6 430 27 466 74 b 515 138 515 208 515 357 l 303 357 l 303 287 l 441 287 b 440 202 436 154 406 115 b 382 84 343 64 290 64 b 237 64 198 84 174 115 b 139 161 139 218 139 333 b 139 448 139 506 175 552 b 200 584 241 602 290 602 b 346 602 391 580 420 550 l 465 605 b 425 644 362 672 290 672 z"},"q":{"x_min":0,"x_max":480,"ha":480,"o":"m 230 418 b 268 418 297 404 315 383 b 345 348 345 293 345 239 b 345 185 345 130 315 95 b 297 74 268 60 230 60 b 192 60 163 74 145 95 b 115 130 115 185 115 239 b 115 293 115 348 145 383 b 163 404 192 418 230 418 z m 225 484 b 166 484 119 460 90 425 b 45 371 45 305 45 239 b 45 173 45 107 90 53 b 119 18 166 -6 225 -6 b 274 -6 318 17 345 55 l 345 -183 l 415 -183 l 415 478 l 345 478 l 345 423 b 318 461 274 484 225 484 z"},"d":{"x_min":0,"x_max":480,"ha":480,"o":"m 230 418 b 268 418 297 404 315 383 b 345 348 345 293 345 239 b 345 185 345 130 315 95 b 297 74 268 60 230 60 b 192 60 163 74 145 95 b 115 130 115 185 115 239 b 115 293 115 348 145 383 b 163 404 192 418 230 418 z m 225 484 b 166 484 119 460 90 425 b 45 371 45 305 45 239 b 45 173 45 107 90 53 b 119 18 166 -6 225 -6 b 274 -6 318 17 345 55 l 345 0 l 415 0 l 415 666 l 345 666 l 345 423 b 318 461 274 484 225 484 z"},"1":{"x_min":0,"x_max":361,"ha":361,"o":"m 197 666 l 80 607 l 113 542 l 187 581 l 187 0 l 261 0 l 261 666 z"},"5":{"x_min":0,"x_max":492,"ha":492,"o":"m 236 402 b 208 402 178 395 154 383 l 154 596 l 401 596 l 401 666 l 82 666 l 82 341 l 148 306 b 168 321 201 332 236 332 b 316 332 368 277 368 198 b 368 119 317 64 236 64 b 189 64 141 82 109 113 l 64 58 b 115 14 177 -6 236 -6 b 356 -6 442 78 442 198 b 442 318 356 402 236 402 z"}}}
